<?xml version="1.0" encoding="utf-8"?>
<!-- Generator: Adobe Illustrator 25.2.3, SVG Export Plug-In . SVG Version: 6.00 Build 0)  -->
<svg version="1.1" id="Layer_1" xmlns="http://www.w3.org/2000/svg" xmlns:xlink="http://www.w3.org/1999/xlink" x="0px" y="0px"
	 viewBox="0 0 70 70" style="enable-background:new 0 0 70 70;" xml:space="preserve">
<style type="text/css">
	.st0{fill:url(#SVGID_1_);}
</style>
<g id="Defense_3_">
	
		<linearGradient id="SVGID_1_" gradientUnits="userSpaceOnUse" x1="14.4385" y1="20.9899" x2="55.6177" y2="62.169" gradientTransform="matrix(1 0 0 -1 0 72)">
		<stop  offset="0" style="stop-color:#4D0380"/>
		<stop  offset="1" style="stop-color:#7F35B2"/>
	</linearGradient>
	<path class="st0" d="M35,65.9l-0.9-0.4c-1.1-0.4-25.4-9.8-25.4-34.3V15.5l1.9-0.5c4.1-1.1,8-2.5,11.9-4.2c3.8-1.7,7.5-3.6,11-5.7
		L35,4.1l1.4,0.9c3.5,2.2,7.2,4.2,11,5.7c3.9,1.8,7.9,3.2,11.9,4.2l1.9,0.5v15.8c0,24-22.7,33.3-25.4,34.3l0,0L35,65.9z M10.3,16.7
		v14.5c0,23.3,23.3,32.4,24.3,32.8l0.4,0.2l0.5-0.2c1.4-0.5,24.1-9.6,24.1-32.8V16.7l-0.8-0.2c-4.2-1.1-8.2-2.6-12.2-4.3
		c-3.9-1.7-7.6-3.6-11.1-5.9L35,6l-0.5,0.4c-3.5,2.2-7.3,4.2-11.1,5.9c-3.9,1.8-8,3.2-12.2,4.3L10.3,16.7z"/>
</g>
</svg>
