<?xml version="1.0" encoding="utf-8"?>
<!-- Generator: Adobe Illustrator 24.2.3, SVG Export Plug-In . SVG Version: 6.00 Build 0)  -->
<svg version="1.1" id="Layer_1" xmlns="http://www.w3.org/2000/svg" xmlns:xlink="http://www.w3.org/1999/xlink" x="0px" y="0px"
	 viewBox="0 0 120 120" style="enable-background:new 0 0 120 120;" xml:space="preserve">
<style type="text/css">
	.st0{fill:url(#SVGID_1_);}
	.st1{fill:url(#SVGID_2_);}
	.st2{fill:url(#SVGID_3_);}
	.st3{fill:url(#SVGID_4_);}
	.st4{fill:url(#SVGID_5_);}
	.st5{fill:url(#SVGID_6_);}
	.st6{fill:url(#SVGID_7_);}
	.st7{fill:url(#SVGID_8_);}
	.st8{fill:url(#SVGID_9_);}
	.st9{fill:url(#SVGID_10_);}
	.st10{fill:url(#SVGID_11_);}
	.st11{fill:url(#SVGID_12_);}
</style>
<g id="management_1_1_">
	<g>
		<g>
			
				<linearGradient id="SVGID_1_" gradientUnits="userSpaceOnUse" x1="39.2004" y1="477.85" x2="80.6125" y2="477.85" gradientTransform="matrix(1 0 0 1 0 -380)">
				<stop  offset="0" style="stop-color:#1DBED2"/>
				<stop  offset="1" style="stop-color:#218DCC"/>
			</linearGradient>
			<path class="st0" d="M78.2,109.6H41.6c-1,0-2-0.7-2.3-1.7s0.1-2.1,0.9-2.7c1.9-1.3,6.7-3.2,8.7-4l2-15.1l3,0.4l-2.2,16.8
				l-0.8,0.3c-1.4,0.5-4.7,1.8-6.9,2.9h32c-2.3-1.1-5.5-2.4-7-2.9l-0.9-0.3l-1.6-16.9l3-0.3l1.4,15c2.1,0.8,6.9,2.7,8.7,4
				c0.9,0.6,1.2,1.7,0.9,2.7C80.1,108.9,79.2,109.6,78.2,109.6"/>
			
				<linearGradient id="SVGID_2_" gradientUnits="userSpaceOnUse" x1="3.8" y1="427.25" x2="116" y2="427.25" gradientTransform="matrix(1 0 0 1 0 -380)">
				<stop  offset="0" style="stop-color:#1DBED2"/>
				<stop  offset="1" style="stop-color:#218DCC"/>
			</linearGradient>
			<path class="st1" d="M109.9,14.3c1.7,0,3.1,1.3,3.1,2.9v60.2c0,1.4-1.3,2.6-2.9,2.6H9.4c-1.5,0-2.6-1.1-2.6-2.4V16.7
				c0-1.3,1.2-2.4,2.6-2.4L109.9,14.3 M109.9,11.4H9.4c-3.1,0-5.6,2.4-5.6,5.4v60.9c0,3,2.5,5.4,5.6,5.4h100.8
				c3.2,0,5.8-2.5,5.8-5.6V17.2C116,14,113.3,11.4,109.9,11.4"/>
			
				<linearGradient id="SVGID_3_" gradientUnits="userSpaceOnUse" x1="32.0576" y1="433.8" x2="35.0426" y2="433.8" gradientTransform="matrix(1 0 0 1 0 -380)">
				<stop  offset="0" style="stop-color:#1DBED2"/>
				<stop  offset="1" style="stop-color:#218DCC"/>
			</linearGradient>
			<path class="st2" d="M33.6,39.7c-0.5,0-1-0.1-1.5-0.1V68h3V39.6C34.6,39.7,34.1,39.7,33.6,39.7"/>
			
				<linearGradient id="SVGID_4_" gradientUnits="userSpaceOnUse" x1="27.6" y1="412" x2="39.5398" y2="412" gradientTransform="matrix(1 0 0 1 0 -380)">
				<stop  offset="0" style="stop-color:#1DBED2"/>
				<stop  offset="1" style="stop-color:#218DCC"/>
			</linearGradient>
			<path class="st3" d="M33.6,26c-3.3,0-6,2.7-6,6s2.7,6,6,6s6-2.7,6-6C39.5,28.7,36.9,26,33.6,26"/>
			
				<linearGradient id="SVGID_5_" gradientUnits="userSpaceOnUse" x1="52.1713" y1="411.95" x2="55.1562" y2="411.95" gradientTransform="matrix(1 0 0 1 0 -380)">
				<stop  offset="0" style="stop-color:#1DBED2"/>
				<stop  offset="1" style="stop-color:#218DCC"/>
			</linearGradient>
			<path class="st4" d="M53.5,37.4c0.6,0,1.1,0.1,1.7,0.2V26.3h-3v11.3C52.6,37.5,53,37.4,53.5,37.4"/>
			
				<linearGradient id="SVGID_6_" gradientUnits="userSpaceOnUse" x1="52.1713" y1="440.45" x2="55.1562" y2="440.45" gradientTransform="matrix(1 0 0 1 0 -380)">
				<stop  offset="0" style="stop-color:#1DBED2"/>
				<stop  offset="1" style="stop-color:#218DCC"/>
			</linearGradient>
			<path class="st5" d="M53.5,53c-0.4,0-0.9,0-1.3-0.1v15.2h3V52.8C54.6,52.9,54,53,53.5,53"/>
			
				<linearGradient id="SVGID_7_" gradientUnits="userSpaceOnUse" x1="47.5" y1="425.2" x2="59.4398" y2="425.2" gradientTransform="matrix(1 0 0 1 0 -380)">
				<stop  offset="0" style="stop-color:#1DBED2"/>
				<stop  offset="1" style="stop-color:#218DCC"/>
			</linearGradient>
			<path class="st6" d="M53.5,39.2c-3.3,0-6,2.7-6,6s2.7,6,6,6s6-2.7,6-6C59.4,41.9,56.8,39.2,53.5,39.2"/>
			
				<linearGradient id="SVGID_8_" gradientUnits="userSpaceOnUse" x1="69.3374" y1="421.05" x2="72.3224" y2="421.05" gradientTransform="matrix(1 0 0 1 0 -380)">
				<stop  offset="0" style="stop-color:#1DBED2"/>
				<stop  offset="1" style="stop-color:#218DCC"/>
			</linearGradient>
			<path class="st7" d="M71,55.6c0.4,0,0.9,0,1.3,0.1V26.3h-3v29.5C69.9,55.6,70.4,55.6,71,55.6"/>
			
				<linearGradient id="SVGID_9_" gradientUnits="userSpaceOnUse" x1="65.0534" y1="443.4" x2="76.9932" y2="443.4" gradientTransform="matrix(1 0 0 1 0 -380)">
				<stop  offset="0" style="stop-color:#1DBED2"/>
				<stop  offset="1" style="stop-color:#218DCC"/>
			</linearGradient>
			<path class="st8" d="M71,57.4c-3.3,0-6,2.7-6,6c0,3.3,2.7,6,6,6s6-2.7,6-6S74.3,57.4,71,57.4"/>
			
				<linearGradient id="SVGID_10_" gradientUnits="userSpaceOnUse" x1="87.6864" y1="410" x2="90.6714" y2="410" gradientTransform="matrix(1 0 0 1 0 -380)">
				<stop  offset="0" style="stop-color:#1DBED2"/>
				<stop  offset="1" style="stop-color:#218DCC"/>
			</linearGradient>
			<path class="st9" d="M89.2,33.7c0.5,0,1,0.1,1.5,0.1v-7.6h-3v7.6C88.2,33.7,88.7,33.7,89.2,33.7"/>
			
				<linearGradient id="SVGID_11_" gradientUnits="userSpaceOnUse" x1="87.6864" y1="438.6" x2="90.6714" y2="438.6" gradientTransform="matrix(1 0 0 1 0 -380)">
				<stop  offset="0" style="stop-color:#1DBED2"/>
				<stop  offset="1" style="stop-color:#218DCC"/>
			</linearGradient>
			<path class="st10" d="M89.2,49.2c-0.5,0-1-0.1-1.5-0.1v19h3v-19C90.2,49.2,89.7,49.2,89.2,49.2"/>
			
				<linearGradient id="SVGID_12_" gradientUnits="userSpaceOnUse" x1="83.2" y1="421.5" x2="95.1398" y2="421.5" gradientTransform="matrix(1 0 0 1 0 -380)">
				<stop  offset="0" style="stop-color:#1DBED2"/>
				<stop  offset="1" style="stop-color:#218DCC"/>
			</linearGradient>
			<path class="st11" d="M89.2,35.5c-3.3,0-6,2.7-6,6s2.7,6,6,6s6-2.7,6-6C95.1,38.2,92.5,35.5,89.2,35.5"/>
		</g>
	</g>
</g>
</svg>
