<?xml version="1.0" encoding="utf-8"?>
<!-- Generator: Adobe Illustrator 24.2.3, SVG Export Plug-In . SVG Version: 6.00 Build 0)  -->
<svg version="1.1" id="Layer_1" xmlns="http://www.w3.org/2000/svg" xmlns:xlink="http://www.w3.org/1999/xlink" x="0px" y="0px"
	 viewBox="0 0 120 120" style="enable-background:new 0 0 120 120;" xml:space="preserve">
<style type="text/css">
	.st0{display:none;}
	.st1{display:inline;}
	.st2{fill:url(#SVGID_1_);}
	.st3{fill:url(#SVGID_2_);}
	.st4{fill:url(#SVGID_3_);}
	.st5{fill:url(#SVGID_4_);}
	.st6{fill:url(#SVGID_5_);}
	.st7{fill:url(#SVGID_6_);}
</style>
<g id="application_compatibility_1_" class="st0">
	<g class="st1">
		<g>
			<linearGradient id="SVGID_1_" gradientUnits="userSpaceOnUse" x1="32.6464" y1="45.6313" x2="114" y2="45.6313">
				<stop  offset="0.2269" style="stop-color:#1F9A89"/>
				<stop  offset="0.4761" style="stop-color:#47AA6A"/>
				<stop  offset="0.7363" style="stop-color:#6AB84E"/>
				<stop  offset="0.8758" style="stop-color:#78BD43"/>
			</linearGradient>
			<path class="st2" d="M106.8,5H92v3.7h14.8V5z M84.6,5H69.8v3.7h14.8V5z M62.4,5H47.6v3.7h14.8V5z M40.2,5h-0.3
				c-4,0-7.2,3.2-7.2,7.2v3.1h3.7v-3.1c0-1.9,1.6-3.5,3.5-3.5h0.3V5z M36.3,22.7h-3.7v14.8h3.7V22.7z M36.3,44.9h-3.7v14.8h3.7V44.9
				z M36.3,67.1h-3.7v12v0v0v0v0v0v0v0v0v0c0,0,0,0,0,0v0v0v0v0v0v0v0v0v0v0c0,0,0,0,0,0v0v0v0v0v0c0,0,0,0,0,0v0v0v0v0v0
				c0,0,0,0,0,0v0v0v0c0,0,0,0,0,0v0v0v0v0c0,0,0,0,0,0v0v0c0,0,0,0,0,0v0c0,0,0,0,0,0v0v0c0,0,0,0,0,0v0v0c0,0,0,0,0,0v0v0
				c0,0,0,0,0,0v0v0c0,0,0,0,0,0v0c0,0,0,0,0,0v0v0c0,0,0,0,0,0v0c0,0,0,0,0,0v0v0c0,0,0,0,0,0v0c0,0,0,0,0,0v0c0,0,0,0,0,0v0
				c0,0,0,0,0,0v0c0,0,0,0,0,0v0c0,0,0,0,0,0v0c0,0,0,0,0,0v0c0,0,0,0,0,0v0c0,0,0,0,0,0v0c0,0,0,0,0,0v0c0,0,0,0,0,0v0l0,0v0
				c0,0,0,0,0,0v0c0,0,0,0,0,0c0,0,0,0,0,0c0,0,0,0,0,0v0c0,0,0,0,0,0v0c0,0,0,0,0,0v0c0,0,0,0,0,0c0,0,0,0,0,0v0c0,0,0,0,0,0
				c0,0,0,0,0,0v0c0,0,0,0,0,0c0,0,0,0,0,0c0,0,0,0,0,0v0c0,0,0,0,0,0c0,0,0,0,0,0c0,0,0,0,0,0v0c0,0,0,0,0,0s0,0,0,0v0c0,0,0,0,0,0
				c0,0,0,0,0,0v0c0,0,0,0,0,0v0c0,0,0,0,0,0v0c0,0,0,0,0,0v0c0,0,0,0.1,0,0.1c0,0,0,0,0,0v0c0,0,0,0,0,0v0c0,0,0,0,0,0v0
				c0,0,0,0,0,0v0c0,0,0,0,0,0v0c0,0,0,0,0,0v0c0,0,0,0,0,0c0,0,0,0,0,0c0,0,0,0,0,0c0,0,0,0,0,0c0,0,0,0,0,0c0,0,0,0,0,0
				c0,0,0,0,0,0l0,0c0,0,0,0,0,0c0,0,0,0,0,0c0,0,0,0,0,0c0,0,0,0,0,0c0,0,0,0,0,0c0,0,0,0,0,0c0,0,0,0,0,0h0c0,0.1,0,0.1,0,0.2l0,0
				c0,0,0,0,0,0c0,0,0,0,0,0v0c0,0,0,0,0,0c0,0,0,0,0,0h0c0,0,0,0,0,0c0.1,0.5,0.2,1,0.4,1.5l3.4-1.4c-0.2-0.4-0.3-0.9-0.3-1.3V67.1
				z M38.2,82.6l-0.6,3.6c0,0,0.1,0,0.1,0c0,0,0,0,0,0h0c0,0,0,0,0,0h0c0,0,0,0,0,0c0,0,0,0,0,0c0,0,0,0,0,0c0,0,0,0,0,0
				c0,0,0,0,0,0c0,0,0,0,0,0c0,0,0,0,0,0c0,0,0,0,0,0c0,0,0,0,0,0c0,0,0,0,0,0c0,0,0,0,0,0c0,0,0,0,0,0c0,0,0,0,0,0c0,0,0,0,0,0
				c0,0,0,0,0,0c0,0,0,0,0,0c0,0,0,0,0,0c0,0,0,0,0,0c0,0,0,0,0,0c0,0,0,0,0,0c0,0,0,0,0,0c0,0,0,0,0,0c0,0,0,0,0,0c0,0,0,0,0,0h0
				c0,0,0,0,0,0c0,0,0,0,0,0c0,0,0,0,0,0h0c0,0,0,0,0,0h0c0,0,0,0,0,0h0c0,0,0,0,0,0c0.1,0,0.2,0,0.3,0l0,0c0,0,0,0,0,0h0l0,0
				c0,0,0,0,0,0h0c0,0,0,0,0,0h0c0,0,0,0,0,0c0,0,0,0,0,0h0c0,0,0,0,0,0h0c0,0,0,0,0,0h0c0,0,0,0,0,0h0c0,0,0,0,0,0h0h0h0
				c0,0,0,0,0,0h0c0,0,0,0,0,0h0h0c0,0,0,0,0,0h0h0c0,0,0,0,0,0h0h0h0c0,0,0,0,0,0h0h0h0h0c0,0,0,0,0,0h0h0h0h0h0h0h0h0c0,0,0,0,0,0
				h0h0h0h0h0h0h0h0h0h0h0h0h0h13.6v-3.7H38.8C38.6,82.6,38.4,82.6,38.2,82.6 M75.7,82.6H60.9v3.7h14.8V82.6z M97.9,82.6H83.1v3.7
				h14.8V82.6z M114,77.2h-3.7v1.9c0,1.9-1.6,3.5-3.5,3.5h-1.5v3.7h1.5c4,0,7.2-3.2,7.2-7.2V77.2z M114,55h-3.7v14.8h3.7V55z
				 M114,32.8h-3.7v14.8h3.7V32.8z M113.8,10.6l-3.6,0.8c0.1,0.2,0.1,0.5,0.1,0.8v13.2h3.7V12.2v0v0v0v0v0v0v0v0v0v0v0c0,0,0,0,0,0
				v0v0v0v0v0v0v0v0v0c0,0,0,0,0,0v0v0v0v0v0c0,0,0,0,0,0v0v0v0v0c0,0,0,0,0,0v0v0c0,0,0,0,0,0v0v0v0v0v0c0,0,0,0,0,0v0c0,0,0,0,0,0
				v0v0v0c0,0,0,0,0,0v0c0,0,0,0,0,0v0v0v0c0,0,0,0,0,0v0c0,0,0,0,0,0v0v0v0c0,0,0,0,0,0v0c0,0,0,0,0,0v0v0c0,0,0,0,0,0v0
				c0,0,0,0,0,0v0c0,0,0,0,0,0v0c0,0,0,0,0,0v0v0c0,0,0,0,0,0s0,0,0,0v0v0c0,0,0,0,0,0c0,0,0,0,0,0v0c0,0,0,0,0,0v0c0,0,0,0,0,0v0v0
				c0,0,0,0,0,0c0,0,0,0,0,0v0c0,0,0,0,0,0v0c0,0,0,0,0,0v0c0,0,0,0,0,0v0c0,0,0,0,0,0c0,0,0,0,0,0c0,0,0,0,0,0c0,0,0,0,0,0
				c0,0,0,0,0,0v0c0,0,0,0,0,0c0-0.3-0.1-0.5-0.1-0.7l0,0c0,0,0,0,0,0c0,0,0,0,0,0c0,0,0,0,0,0c0,0,0,0,0,0c0,0,0,0,0,0v0
				c0,0,0,0,0,0c0,0,0,0,0,0c0,0,0,0,0,0c0,0,0,0,0,0c0,0,0,0,0,0c0,0,0,0,0,0c0,0,0,0,0,0c0,0,0,0,0,0c0,0,0,0,0,0c0,0,0,0,0,0
				c0,0,0,0,0,0C113.8,10.7,113.8,10.7,113.8,10.6C113.8,10.7,113.8,10.7,113.8,10.6C113.8,10.7,113.8,10.7,113.8,10.6
				C113.8,10.7,113.8,10.7,113.8,10.6L113.8,10.6C113.8,10.7,113.8,10.7,113.8,10.6C113.8,10.7,113.8,10.7,113.8,10.6
				C113.8,10.7,113.8,10.7,113.8,10.6C113.8,10.7,113.8,10.7,113.8,10.6L113.8,10.6L113.8,10.6C113.8,10.6,113.8,10.6,113.8,10.6
				L113.8,10.6C113.8,10.6,113.8,10.6,113.8,10.6 M106.8,5v3.7c0.4,0,0.8,0.1,1.1,0.2l1.2-3.5C108.6,5.2,108,5,107.4,5c0,0,0,0,0,0
				c0,0,0,0,0,0c0,0,0,0,0,0c0,0,0,0,0,0h0c0,0,0,0,0,0h0c0,0,0,0,0,0h0c0,0,0,0,0,0h0c0,0,0,0,0,0h0c0,0,0,0,0,0h0h0c0,0,0,0,0,0h0
				h0c0,0,0,0,0,0c0,0,0,0,0,0h0c0,0,0,0,0,0h0c0,0,0,0,0,0h0c0,0,0,0,0,0h0h0h0c0,0,0,0,0,0h0c0,0,0,0,0,0h0c0,0,0,0,0,0h0
				c0,0,0,0,0,0h0h0c0,0,0,0,0,0c0,0,0,0,0,0h0h0h0c0,0,0,0,0,0h0h0h0c0,0,0,0,0,0h0h0c0,0,0,0,0,0h0h0h0h0h0c0,0,0,0,0,0h0h0h0h0h0
				c0,0,0,0,0,0h0h0H106.8L106.8,5L106.8,5L106.8,5L106.8,5L106.8,5L106.8,5L106.8,5C106.8,5,106.8,5,106.8,5L106.8,5L106.8,5
				L106.8,5L106.8,5L106.8,5L106.8,5L106.8,5L106.8,5z"/>
			<linearGradient id="SVGID_2_" gradientUnits="userSpaceOnUse" x1="5.6606" y1="72.7116" x2="87.0142" y2="72.7116">
				<stop  offset="0.2269" style="stop-color:#1F9A89"/>
				<stop  offset="0.4761" style="stop-color:#47AA6A"/>
				<stop  offset="0.7363" style="stop-color:#6AB84E"/>
				<stop  offset="0.8758" style="stop-color:#78BD43"/>
			</linearGradient>
			<path class="st3" d="M79.8,35.7c1.9,0,3.5,1.6,3.5,3.5v66.9c0,1.9-1.6,3.5-3.5,3.5H12.9c-1.9,0-3.5-1.6-3.5-3.5V39.3
				c0-1.9,1.6-3.5,3.5-3.5H79.8 M79.8,32H12.9c-4,0-7.2,3.2-7.2,7.2v66.9c0,4,3.2,7.2,7.2,7.2h66.9c4,0,7.2-3.2,7.2-7.2V39.3
				C87,35.3,83.8,32,79.8,32"/>
		</g>
	</g>
</g>
<g id="multi_cloud_1_">
	<g>
		<g>
			<linearGradient id="SVGID_3_" gradientUnits="userSpaceOnUse" x1="12.6032" y1="66.0181" x2="14.1039" y2="66.0181">
				<stop  offset="7.109789e-03" style="stop-color:#209BAA"/>
				<stop  offset="0.7942" style="stop-color:#21BED2"/>
			</linearGradient>
			<path class="st4" d="M12.6,66c0.4,0,0.9,0,1.5,0"/>
			<g>
				<linearGradient id="SVGID_4_" gradientUnits="userSpaceOnUse" x1="13.0284" y1="64.0194" x2="98.2275" y2="64.0194">
					<stop  offset="7.109789e-03" style="stop-color:#209BAA"/>
					<stop  offset="0.7942" style="stop-color:#21BED2"/>
				</linearGradient>
				<path class="st5" d="M28.4,88.9c-0.8,0-1.3,0-1.5,0c-7.4-0.2-14-7-13.9-14.3c0.2-7.2,6.2-13.1,13.4-13.1c0.1,0,0.2,0,0.3,0
					c0.7,0,1.4,0.1,2.1,0.2c2.1-7,8.5-11.9,15.8-11.9c0.1,0,0.3,0,0.4,0c1.9,0.1,3.8,0.4,5.5,1.1c3.2-7.1,9.9-11.7,17.2-11.7
					c0.2,0,0.3,0,0.5,0C77.5,39.4,85.3,47,86.6,57c6.8,1.2,11.8,8.1,11.6,16.1c-0.2,8.6-6.4,15.6-13.9,15.6c-0.1,0-0.2,0-0.3,0
					c-1,0-14.9,0-28.4,0.1C44.2,88.9,32.4,88.9,28.4,88.9z M26.4,63.9c-5.9,0-10.7,4.8-10.9,10.7c-0.1,6,5.3,11.6,11.5,11.8
					c1,0,15.1,0,28.7-0.1c11.3,0,23.1-0.1,27-0.1c0.8,0,1.3,0,1.4,0c0.1,0,0.2,0,0.3,0c6.1,0,11.2-5.9,11.4-13.2
					c0.2-7.1-4.4-13.2-10.3-13.7l-1-0.1l-0.1-1c-0.8-9.3-7.8-16.4-16.2-16.6c-0.1,0-0.3,0-0.4,0c-6.7,0-12.7,4.4-15.4,11.3l-0.5,1.3
					l-1.2-0.6c-1.7-0.8-3.6-1.3-5.7-1.4c-0.1,0-0.2,0-0.3,0c-6.5,0-12.3,4.7-13.7,11.2l-0.3,1.3l-1.3-0.4c-0.8-0.2-1.7-0.4-2.7-0.4
					C26.6,63.9,26.5,63.9,26.4,63.9z"/>
			</g>
			<linearGradient id="SVGID_5_" gradientUnits="userSpaceOnUse" x1="85.7378" y1="56.4792" x2="119.2404" y2="56.4792">
				<stop  offset="7.109789e-03" style="stop-color:#209BAA"/>
				<stop  offset="0.7942" style="stop-color:#21BED2"/>
			</linearGradient>
			<path class="st6" d="M112,51.9c-0.9-6.4-6-11.2-12-11.3c-0.1,0-0.2,0-0.3,0c-4.6,0-8.8,2.8-11,7.2c-0.9-0.3-2-0.5-3-0.5l0,0
				c0.5,0.9,1,1.7,1.4,2.7c0.6,0.1,1.2,0.3,1.7,0.6l1.2,0.6l0.5-1.3c1.6-4.1,5.2-6.7,9.2-6.7c0.1,0,0.2,0,0.2,0
				c5,0.1,9.2,4.4,9.7,9.9l0.2,1.2l1,0.1c3.5,0.3,6.1,3.8,6,8c-0.1,4.3-3.1,7.8-6.6,7.8l-0.1,0c-0.4,0-4.3,0-9.4,0
				c0.1,0.8,0.2,1.6,0.2,2.5c5,0,8.8,0,9.2,0l0.2,0c4.9,0,9-4.6,9.1-10.2C119.4,57.1,116.3,52.8,112,51.9z"/>
			<linearGradient id="SVGID_6_" gradientUnits="userSpaceOnUse" x1="1" y1="48.6291" x2="55.2539" y2="48.6291">
				<stop  offset="7.109789e-03" style="stop-color:#209BAA"/>
				<stop  offset="0.7942" style="stop-color:#21BED2"/>
			</linearGradient>
			<path class="st7" d="M12.5,67.3c0-0.1,0.1-0.1,0.1-0.2v-2.3c-0.5,0-0.9,0-1,0c-4.3-0.1-8.2-4.2-8.1-8.3c0.1-4.2,3.5-7.5,7.7-7.5
				l0.2,0c0.7,0,1.3,0.1,1.9,0.3l1.3,0.4l0.3-1.3c1-4.6,5.1-8,9.7-8c0.1,0,0.2,0,0.2,0c1.4,0,2.8,0.4,4,1l1.2,0.6l0.5-1.3
				c1.9-4.9,6.2-8.1,11-8.1c0.1,0,0.2,0,0.3,0c5.4,0.1,10.1,4.3,11.3,10.2c0.7-0.7,1.4-1.3,2.1-1.8c-1.9-6.3-7.2-10.8-13.4-10.9
				c-0.1,0-0.2,0-0.4,0c-5.4,0-10.3,3.3-12.8,8.5c-1.2-0.4-2.5-0.7-3.9-0.7c-0.1,0-0.2,0-0.3,0c-5.4,0-10.2,3.6-11.8,8.7
				c-0.4-0.1-0.8-0.1-1.3-0.1l-0.2,0c-5.5,0-10,4.5-10.2,10c-0.1,5.5,4.9,10.7,10.5,10.9C11.7,67.3,12,67.3,12.5,67.3z"/>
		</g>
	</g>
</g>
</svg>
