<svg id="Layer_1" data-name="Layer 1" xmlns="http://www.w3.org/2000/svg" xmlns:xlink="http://www.w3.org/1999/xlink" viewBox="0 0 107.08 106.35"><defs><style>.cls-1{fill:url(#linear-gradient);}.cls-2{fill:url(#linear-gradient-2);}.cls-3{fill:url(#linear-gradient-3);}.cls-4{fill:url(#linear-gradient-4);}.cls-5{fill:url(#linear-gradient-5);}.cls-6{fill:url(#linear-gradient-6);}.cls-7{fill:url(#linear-gradient-7);}.cls-8{fill:url(#linear-gradient-8);}.cls-9{fill:url(#linear-gradient-9);}.cls-10{fill:url(#linear-gradient-10);}.cls-11{fill:url(#linear-gradient-11);}</style><linearGradient id="linear-gradient" x1="93.26" y1="60.77" x2="113.6" y2="60.77" gradientUnits="userSpaceOnUse"><stop offset="0" stop-color="#1d4586"/><stop offset="0.03" stop-color="#1d4788"/><stop offset="1" stop-color="#218dcc"/></linearGradient><linearGradient id="linear-gradient-2" x1="6.51" y1="60.77" x2="26.85" y2="60.77" xlink:href="#linear-gradient"/><linearGradient id="linear-gradient-3" x1="49.89" y1="16.92" x2="70.22" y2="16.92" xlink:href="#linear-gradient"/><linearGradient id="linear-gradient-4" x1="49.89" y1="102.94" x2="70.22" y2="102.94" xlink:href="#linear-gradient"/><linearGradient id="linear-gradient-5" x1="49.89" y1="60.53" x2="70.22" y2="60.53" xlink:href="#linear-gradient"/><linearGradient id="linear-gradient-6" x1="24.78" y1="36.89" x2="48.65" y2="36.89" gradientTransform="translate(36.84 -15.16) rotate(45)" xlink:href="#linear-gradient"/><linearGradient id="linear-gradient-7" x1="24.79" y1="83.36" x2="48.65" y2="83.36" gradientTransform="translate(69.7 -1.55) rotate(45)" xlink:href="#linear-gradient"/><linearGradient id="linear-gradient-8" x1="72.77" y1="36.89" x2="96.63" y2="36.89" gradientTransform="translate(50.89 -49.09) rotate(45)" xlink:href="#linear-gradient"/><linearGradient id="linear-gradient-9" x1="72.77" y1="83.36" x2="96.63" y2="83.36" gradientTransform="translate(83.75 -35.48) rotate(45)" xlink:href="#linear-gradient"/><linearGradient id="linear-gradient-10" x1="24.67" y1="54.36" x2="38.45" y2="54.36" xlink:href="#linear-gradient"/><linearGradient id="linear-gradient-11" x1="69.33" y1="54.36" x2="83.11" y2="54.36" xlink:href="#linear-gradient"/></defs><g id="network_1" data-name="network 1"><path class="cls-1" d="M113.6,60.77A10.17,10.17,0,1,1,103.43,50.6,10.16,10.16,0,0,1,113.6,60.77" transform="translate(-6.51 -6.76)"/><path class="cls-2" d="M26.85,60.77A10.17,10.17,0,1,1,16.68,50.6,10.16,10.16,0,0,1,26.85,60.77" transform="translate(-6.51 -6.76)"/><path class="cls-3" d="M70.22,16.92A10.17,10.17,0,1,1,60.06,6.76,10.16,10.16,0,0,1,70.22,16.92" transform="translate(-6.51 -6.76)"/><path class="cls-4" d="M70.22,102.94A10.17,10.17,0,1,1,60.06,92.78a10.16,10.16,0,0,1,10.16,10.16" transform="translate(-6.51 -6.76)"/><path class="cls-5" d="M70.22,60.53A10.17,10.17,0,1,1,60.06,50.37,10.16,10.16,0,0,1,70.22,60.53" transform="translate(-6.51 -6.76)"/><rect class="cls-6" x="21.54" y="35.19" width="30.36" height="3.39" transform="translate(-21.84 30.01) rotate(-45)"/><rect class="cls-7" x="35.02" y="68.18" width="3.39" height="30.36" transform="translate(-54.7 43.62) rotate(-45)"/><rect class="cls-8" x="83.01" y="21.71" width="3.39" height="30.36" transform="translate(-7.79 63.94) rotate(-45)"/><rect class="cls-9" x="69.52" y="81.66" width="30.36" height="3.39" transform="translate(-40.65 77.55) rotate(-45)"/><rect class="cls-10" x="24.67" y="52.66" width="13.78" height="3.39"/><rect class="cls-11" x="69.33" y="52.66" width="13.78" height="3.39"/></g></svg>