<svg id="Layer_1" data-name="Layer 1" xmlns="http://www.w3.org/2000/svg" xmlns:xlink="http://www.w3.org/1999/xlink" viewBox="0 0 108.34 108.43"><defs><style>.cls-1{fill:url(#linear-gradient);}.cls-2{fill:url(#linear-gradient-2);}</style><linearGradient id="linear-gradient" x1="32.65" y1="45.63" x2="114" y2="45.63" gradientUnits="userSpaceOnUse"><stop offset="0.23" stop-color="#1f9a89"/><stop offset="0.48" stop-color="#47aa6a"/><stop offset="0.74" stop-color="#6ab84e"/><stop offset="0.88" stop-color="#78bd43"/></linearGradient><linearGradient id="linear-gradient-2" x1="5.66" y1="72.71" x2="87.01" y2="72.71" xlink:href="#linear-gradient"/></defs><g id="application_compatibility" data-name="application compatibility"><path class="cls-1" d="M106.77,5H92v3.7h14.79ZM84.58,5H69.79v3.7H84.58ZM62.39,5H47.6v3.7H62.39ZM40.21,5h-.33a7.23,7.23,0,0,0-7.23,7.24v3.1h3.69v-3.1a3.55,3.55,0,0,1,3.54-3.54h.33ZM36.34,22.68H32.65v14.8h3.69Zm0,22.19H32.65V59.66h3.69Zm0,22.19H32.65v12h0v0h0v0h0v.09h0l0,.15h0a6.8,6.8,0,0,0,.42,1.5L36.6,80.4a3.49,3.49,0,0,1-.26-1.32Zm1.89,15.5-.6,3.65.09,0h.33l.25,0H52.41v-3.7H38.81a3.79,3.79,0,0,1-.58,0m37.44,0H60.87v3.7h14.8Zm22.18,0H83.06v3.7H97.85ZM114,77.17h-3.7v1.91a3.54,3.54,0,0,1-3.53,3.53h-1.52v3.7h1.52A7.23,7.23,0,0,0,114,79.08ZM114,55h-3.7V69.77H114Zm0-22.19h-3.7V47.58H114Zm-.17-22.17-3.61.8a3.87,3.87,0,0,1,.08.77v13.2H114V12.17h0v0h0v0h0v0a6.26,6.26,0,0,0-.1-.74h0M106.77,5v3.7a3.63,3.63,0,0,1,1.14.19l1.2-3.5A7.85,7.85,0,0,0,107.43,5h-.66Z" transform="translate(-5.66 -4.95)"/><path class="cls-2" d="M79.78,35.73a3.55,3.55,0,0,1,3.54,3.54v66.89a3.54,3.54,0,0,1-3.54,3.53H12.89a3.53,3.53,0,0,1-3.53-3.53V39.27a3.54,3.54,0,0,1,3.53-3.54H79.78m0-3.7H12.89a7.24,7.24,0,0,0-7.23,7.24v66.89a7.23,7.23,0,0,0,7.23,7.23H79.78A7.23,7.23,0,0,0,87,106.16V39.27A7.23,7.23,0,0,0,79.78,32" transform="translate(-5.66 -4.95)"/></g></svg>